<svg width="183" height="182" viewBox="0 0 183 182" fill="none" xmlns="http://www.w3.org/2000/svg">
<g id="argent">
<g id="Carr&#195;&#169;">
<rect id="Rectangle 13" x="0.333282" y="91.0001" width="128.693" height="128.693" rx="20" transform="rotate(-45 0.333282 91.0001)" fill="url(#paint0_linear_46_200)"/>
<g id="Mask group">
<mask id="mask0_46_200" style="mask-type:alpha" maskUnits="userSpaceOnUse" x="8" y="8" width="167" height="166">
<rect id="Rectangle 14" x="0.333282" y="91" width="128.693" height="128.693" rx="20" transform="rotate(-45 0.333282 91)" fill="url(#paint1_linear_46_200)"/>
</mask>
<g mask="url(#mask0_46_200)">
<circle id="Ellipse 3" cx="43.2454" cy="110.786" r="56.3748" fill="#FCFCFC" fill-opacity="0.2"/>
<ellipse id="Ellipse 4" cx="86.7239" cy="20.976" rx="56.3748" ry="78.532" transform="rotate(-79.4693 86.7239 20.976)" fill="#FCFCFC" fill-opacity="0.2"/>
<ellipse id="Ellipse 5" cx="30.927" cy="98.3502" rx="56.3748" ry="106.299" transform="rotate(10.2239 30.927 98.3502)" fill="#FCFCFC" fill-opacity="0.2"/>
</g>
</g>
</g>
<path id="Vector 10" d="M101.566 171.767L72.3293 114.024L128.61 84.0562L170.273 103.06L101.566 171.767Z" fill="#FCFCFC" fill-opacity="0.8"/>
<g id="&#240;&#159;&#166;&#134; icon &#34;Coins&#34;">
<g id="Group">
<circle id="Ellipse 6" cx="78.3951" cy="97.1991" r="34.2064" fill="url(#paint2_linear_46_200)"/>
<path id="Vector" fill-rule="evenodd" clip-rule="evenodd" d="M78.3959 122.391C92.565 122.391 104.051 110.905 104.051 96.736C104.051 82.567 92.565 71.0806 78.3959 71.0806C64.2269 71.0806 52.7405 82.567 52.7405 96.736C52.7405 110.905 64.2269 122.391 78.3959 122.391ZM78.3959 130.943C97.2881 130.943 112.603 115.628 112.603 96.736C112.603 77.8438 97.2881 62.5288 78.3959 62.5288C59.5037 62.5288 44.1887 77.8438 44.1887 96.736C44.1887 115.628 59.5037 130.943 78.3959 130.943Z" fill="#282662"/>
<path id="Vector_2" fill-rule="evenodd" clip-rule="evenodd" d="M112.541 98.8103C117.826 94.111 121.155 87.2604 121.155 79.6324C121.155 65.4633 109.669 53.977 95.4995 53.977C87.8713 53.977 81.0209 57.3061 76.3215 62.5906C72.0627 62.8454 68.0138 63.8793 64.3154 65.5518C69.6827 53.6833 81.6268 45.4252 95.4995 45.4252C114.392 45.4252 129.707 60.7402 129.707 79.6324C129.707 93.5051 121.448 105.449 109.58 110.817C111.253 107.118 112.287 103.069 112.541 98.8103Z" fill="#282662"/>
<path id="Vector_3" d="M74.7373 79.6324H82.0546V83.0531H89.372V89.8946H74.7373L74.408 89.9219C73.9862 89.9933 73.6046 90.2009 73.3298 90.5086C73.0551 90.816 72.9044 91.2043 72.9044 91.6049C72.9044 92.0056 73.0551 92.3938 73.3298 92.7013C73.6046 93.0089 73.9862 93.2165 74.408 93.2879L74.7373 93.3153H82.0546L82.6545 93.3324C85.0276 93.4728 87.249 94.4717 88.8477 96.1173C90.4463 97.7629 91.2968 99.9258 91.2187 102.148C91.1407 104.37 90.1403 106.476 88.4298 108.02C86.7188 109.564 84.4324 110.424 82.0546 110.419V113.84H74.7373V110.419H67.4199V103.577H82.0546L82.3839 103.55C82.8057 103.479 83.1873 103.271 83.462 102.963C83.7367 102.656 83.8875 102.268 83.8875 101.867C83.8875 101.466 83.7367 101.078 83.462 100.771C83.1873 100.463 82.8057 100.255 82.3839 100.184L82.0546 100.157H74.7373L74.1373 100.14C71.7642 99.9992 69.5429 99.0003 67.9441 97.3547C66.3456 95.7091 65.4951 93.5462 65.5731 91.3242C65.6512 89.1022 66.6515 86.9961 68.3621 85.4523C70.0731 83.9081 72.3594 83.0476 74.7373 83.0531V79.6324Z" fill="#FCFCFC"/>
</g>
</g>
</g>
<defs>
<linearGradient id="paint0_linear_46_200" x1="-39.7219" y1="163.099" x2="306.82" y2="155.605" gradientUnits="userSpaceOnUse">
<stop stop-color="#FFE4F6"/>
<stop offset="1" stop-color="#282662"/>
</linearGradient>
<linearGradient id="paint1_linear_46_200" x1="64.4817" y1="266.426" x2="59.1269" y2="45.6923" gradientUnits="userSpaceOnUse">
<stop stop-color="#FFE4F6"/>
<stop offset="1" stop-color="#282662"/>
</linearGradient>
<linearGradient id="paint2_linear_46_200" x1="140.81" y1="40.8242" x2="57.9917" y2="116.95" gradientUnits="userSpaceOnUse">
<stop stop-color="#282662"/>
<stop offset="1" stop-color="#FFE4F6"/>
</linearGradient>
</defs>
</svg>
