<svg width="101" height="95" viewBox="0 0 101 95" fill="none" xmlns="http://www.w3.org/2000/svg">
<g id="&#240;&#159;&#166;&#134; emoji &#34;sparkles&#34;">
<path id="Vector" d="M99.7263 45.7139L87.8699 42.0181C80.2862 39.5982 75.8433 33.6637 73.758 26.2064L68.5405 1.62856C68.4043 1.14293 68.0723 0.492676 67.051 0.492676C66.1913 0.492676 65.6976 1.14293 65.5615 1.62856L60.344 26.2146C58.2501 33.6719 53.8157 39.6065 46.232 42.0264L34.3756 45.7221C32.6988 46.2489 32.6733 48.5371 34.3415 49.0886L46.2831 53.0642C53.8412 55.4923 58.2501 61.4186 60.344 68.843L65.57 93.1492C65.7062 93.6348 65.987 94.5073 67.0595 94.5073C68.1915 94.5073 68.4128 93.6348 68.549 93.1492L73.775 68.843C75.8688 61.4104 80.2777 55.4841 87.8359 53.0642L99.7774 49.0886C101.429 48.5289 101.403 46.2407 99.7263 45.7139Z" fill="#BFBEDD"/>
<path id="Vector_2" d="M100.85 46.7427C100.663 46.29 100.297 45.8949 99.7263 45.7138L87.8699 42.0181C80.2862 39.5982 75.8432 33.6636 73.7579 26.2063L68.5404 1.62852C68.4638 1.34867 68.1915 0.838344 67.8765 0.690186L69.5618 25.3585C70.813 36.6186 71.8854 41.9193 81.1799 43.4668C89.1636 44.8002 98.3985 46.3312 100.85 46.7427Z" fill="#FFE4F6"/>
<path id="Vector_3" d="M100.875 48.0267L80.3118 52.5867C73.0685 54.3646 69.0767 58.4225 69.0767 69.0405L67.0595 94.5073C67.7489 94.4414 68.3106 94.0793 68.549 93.1492L73.775 68.843C75.8688 61.4104 80.2777 55.484 87.8359 53.0641L99.7774 49.0885C100.339 48.891 100.697 48.4877 100.875 48.0267Z" fill="#282662"/>
<path id="Vector_4" d="M31.8222 67.0981C24.7321 64.8345 24.0853 62.2829 22.8937 57.9781L19.9232 47.9033C19.7444 47.2531 17.9911 47.2531 17.8038 47.9033L15.7866 57.2126C14.5865 61.501 12.0331 64.9086 7.67523 66.2996L0.729911 69.2134C-0.23188 69.518 -0.248903 70.8349 0.712888 71.1477L7.70928 73.5429C12.0501 74.934 14.5865 78.3416 15.7951 82.6135L17.8123 91.5195C17.9996 92.1697 19.7444 92.1697 19.9232 91.5195L22.2894 82.6547C23.4895 78.3581 25.3279 74.9422 31.2264 73.5429L37.7972 71.1477C38.759 70.8267 38.7505 69.5098 37.7801 69.2052L31.8222 67.0981Z" fill="#BFBEDD"/>
<path id="Vector_5" d="M20.4849 57.8299C21.2084 64.2995 21.5744 66.0938 26.9962 67.4355L38.2908 69.5673C38.1717 69.4109 38.0014 69.2792 37.7716 69.2134L31.8136 67.098C25.5918 65.0403 23.8725 62.4228 22.7064 57.1879C21.5403 51.9529 20.2977 48.5371 20.2977 48.5371C19.8636 47.4094 19.2423 47.467 19.2423 47.467L20.4849 57.8299Z" fill="#FFE4F6"/>
<g id="Group">
<path id="Vector_6" d="M20.6892 80.4158C20.6892 74.3166 24.1363 71.2958 29.6177 71.2958L38.1461 70.9584C38.1461 70.9584 37.6525 71.5922 36.7928 71.7897L31.2264 73.5429C26.5025 75.3784 24.3491 76.3003 22.8852 82.5476C22.8852 82.5476 20.9956 89.8156 20.6381 90.5811C20.1445 91.6511 19.5572 91.8734 19.5572 91.8734L20.6892 80.4158Z" fill="#282662"/>
<path id="Vector_7" d="M47.0831 18.8066C47.5598 18.6503 47.5428 17.9918 47.0576 17.8601L40.4868 16.148C39.1079 15.7859 38.0355 14.757 37.644 13.4318L35.0565 3.10186C34.9288 2.59977 34.1883 2.59977 34.0607 3.1101L31.6264 13.3989C31.2519 14.7652 30.1454 15.8188 28.7325 16.1727L22.2042 17.8107C21.7191 17.9342 21.685 18.5926 22.1617 18.7573L29.0474 21.0619C30.2816 21.4735 31.2349 22.4447 31.6094 23.6547L34.0692 33.1945C34.1968 33.6883 34.9288 33.6965 35.0565 33.1945L37.6014 23.6218C37.9844 22.4118 38.9462 21.4488 40.1889 21.0455L47.0831 18.8066Z" fill="#282662" stroke="#282662" stroke-width="0.937045" stroke-miterlimit="10"/>
</g>
</g>
</svg>
