<svg width="99" height="78" viewBox="0 0 99 78" fill="none" xmlns="http://www.w3.org/2000/svg">
<g id="&#240;&#159;&#166;&#134; emoji &#34;railway car&#34;">
<path id="Vector" d="M0 59.9199H98.2833V77.9686H0V59.9199Z" fill="#282662"/>
<path id="Vector_2" d="M0 59.9199H98.3653V65.6627H0V59.9199Z" fill="#B4B4B4"/>
<path id="Vector_3" opacity="0.2" d="M96.8066 61.5607V76.3278H1.64079V61.5607H96.8066ZM98.4474 59.9199H0V77.9686H98.4474V59.9199Z" fill="#282662"/>
<g id="Group">
<path id="Vector_4" d="M11.4855 63.2017C14.2041 63.2017 16.4079 60.9979 16.4079 58.2793C16.4079 55.5608 14.2041 53.3569 11.4855 53.3569C8.76698 53.3569 6.56316 55.5608 6.56316 58.2793C6.56316 60.9979 8.76698 63.2017 11.4855 63.2017Z" fill="#282828"/>
<path id="Vector_5" d="M24.6118 63.2017C27.3304 63.2017 29.5342 60.9979 29.5342 58.2793C29.5342 55.5608 27.3304 53.3569 24.6118 53.3569C21.8933 53.3569 19.6895 55.5608 19.6895 58.2793C19.6895 60.9979 21.8933 63.2017 24.6118 63.2017Z" fill="#282828"/>
<path id="Vector_6" d="M73.8355 63.2017C76.5541 63.2017 78.7579 60.9979 78.7579 58.2793C78.7579 55.5608 76.5541 53.3569 73.8355 53.3569C71.117 53.3569 68.9131 55.5608 68.9131 58.2793C68.9131 60.9979 71.117 63.2017 73.8355 63.2017Z" fill="#282828"/>
<path id="Vector_7" d="M86.9618 63.2017C89.6804 63.2017 91.8842 60.9979 91.8842 58.2793C91.8842 55.5608 89.6804 53.3569 86.9618 53.3569C84.2433 53.3569 82.0395 55.5608 82.0395 58.2793C82.0395 60.9979 84.2433 63.2017 86.9618 63.2017Z" fill="#282828"/>
</g>
<path id="Vector_8" d="M91.8022 58.2793H6.72725C4.01994 58.2793 1.80488 56.0642 1.80488 53.3569V4.95362C1.80488 2.24632 4.01994 0.03125 6.72725 0.03125H91.8022C94.5095 0.03125 96.7245 2.24632 96.7245 4.95362V53.3569C96.7245 56.0642 94.5095 58.2793 91.8022 58.2793Z" fill="url(#paint0_linear_110_221)"/>
<path id="Vector_9" d="M1.72284 42.4457H96.7246V47.6142H1.72284V42.4457Z" fill="url(#paint1_linear_110_221)"/>
<g id="Clip path group">
<mask id="mask0_110_221" style="mask-type:luminance" maskUnits="userSpaceOnUse" x="1" y="0" width="96" height="59">
<g id="d">
<path id="Vector_10" d="M91.8022 58.2793H6.72725C4.01994 58.2793 1.80488 56.0642 1.80488 53.3569V4.95362C1.80488 2.24632 4.01994 0.03125 6.72725 0.03125H91.8022C94.5095 0.03125 96.7245 2.24632 96.7245 4.95362V53.3569C96.7245 56.0642 94.5095 58.2793 91.8022 58.2793Z" fill="white"/>
</g>
</mask>
<g mask="url(#mask0_110_221)">
<path id="Vector_11" d="M-0.164055 -7.51624H98.6935V6.59455H-0.164055V-7.51624Z" fill="#689F38"/>
</g>
</g>
<g id="Clip path group_2">
<mask id="mask1_110_221" style="mask-type:luminance" maskUnits="userSpaceOnUse" x="1" y="0" width="96" height="59">
<g id="e">
<path id="Vector_12" d="M91.8022 58.2793H6.72725C4.01994 58.2793 1.80488 56.0642 1.80488 53.3569V4.95362C1.80488 2.24632 4.01994 0.03125 6.72725 0.03125H91.8022C94.5095 0.03125 96.7245 2.24632 96.7245 4.95362V53.3569C96.7245 56.0642 94.5095 58.2793 91.8022 58.2793Z" fill="white"/>
</g>
</mask>
<g mask="url(#mask1_110_221)">
<g id="Group_2">
<path id="Vector_13" d="M13.9467 37.7695H1.31265C-0.492223 37.7695 -1.96893 36.2928 -1.96893 34.488V17.916C-1.96893 16.1111 -0.492223 14.6344 1.31265 14.6344H13.9467C15.7516 14.6344 17.2283 16.1111 17.2283 17.916V34.488C17.2283 36.2928 15.7516 37.7695 13.9467 37.7695Z" fill="#BFBEDD"/>
</g>
</g>
</g>
<g id="Clip path group_3">
<mask id="mask2_110_221" style="mask-type:luminance" maskUnits="userSpaceOnUse" x="1" y="0" width="96" height="59">
<g id="f">
<path id="Vector_14" d="M91.8022 58.2793H6.72725C4.01994 58.2793 1.80488 56.0642 1.80488 53.3569V4.95362C1.80488 2.24632 4.01994 0.03125 6.72725 0.03125H91.8022C94.5095 0.03125 96.7245 2.24632 96.7245 4.95362V53.3569C96.7245 56.0642 94.5095 58.2793 91.8022 58.2793Z" fill="white"/>
</g>
</mask>
<g mask="url(#mask2_110_221)">
<g id="Group_3" opacity="0.2">
<path id="Vector_15" d="M13.9467 16.2752C14.8492 16.2752 15.5875 17.0135 15.5875 17.916V34.488C15.5875 35.3904 14.8492 36.1287 13.9467 36.1287H1.31265C0.410212 36.1287 -0.328144 35.3904 -0.328144 34.488V17.916C-0.328144 17.0135 0.410212 16.2752 1.31265 16.2752H13.9467ZM13.9467 14.6344H1.31265C-0.492223 14.6344 -1.96893 16.1111 -1.96893 17.916V34.488C-1.96893 36.2928 -0.492223 37.7695 1.31265 37.7695H13.9467C15.7516 37.7695 17.2283 36.2928 17.2283 34.488V17.916C17.2283 16.0291 15.7516 14.6344 13.9467 14.6344Z" fill="#B4B4B4"/>
</g>
</g>
</g>
<path id="Vector_16" d="M32.9799 33.7496H25.4322C23.6274 33.7496 22.1507 32.2729 22.1507 30.468V17.916C22.1507 16.1111 23.6274 14.6344 25.4322 14.6344H32.8978C34.7027 14.6344 36.1794 16.1111 36.1794 17.916V30.468C36.2615 32.2729 34.8668 33.7496 32.9799 33.7496Z" fill="#BFBEDD"/>
<path id="Vector_17" opacity="0.2" d="M32.9799 16.2752C33.8823 16.2752 34.6207 17.0135 34.6207 17.916V30.468C34.6207 31.3705 33.8823 32.1088 32.9799 32.1088H25.4322C24.5298 32.1088 23.7915 31.3705 23.7915 30.468V17.916C23.7915 17.0135 24.5298 16.2752 25.4322 16.2752H32.9799ZM32.9799 14.6344H25.4322C23.6274 14.6344 22.1507 16.1111 22.1507 17.916V30.468C22.1507 32.2729 23.6274 33.7496 25.4322 33.7496H32.8978C34.7027 33.7496 36.1794 32.2729 36.1794 30.468V17.916C36.2615 16.0291 34.8668 14.6344 32.9799 14.6344Z" fill="#B4B4B4"/>
<path id="Vector_18" d="M51.1926 33.5854H43.727C41.9222 33.5854 40.4454 32.1087 40.4454 30.3038V17.6698C40.4454 15.8649 41.9222 14.3882 43.727 14.3882H51.1926C52.9975 14.3882 54.4742 15.8649 54.4742 17.6698V30.2218C54.4742 32.1087 52.9975 33.5854 51.1926 33.5854Z" fill="#BFBEDD"/>
<path id="Vector_19" opacity="0.2" d="M51.1926 16.029C52.0951 16.029 52.8334 16.7673 52.8334 17.6698V30.2218C52.8334 31.1242 52.0951 31.8626 51.1926 31.8626H43.727C42.8246 31.8626 42.0862 31.1242 42.0862 30.2218V17.6698C42.0862 16.7673 42.8246 16.029 43.727 16.029H51.1926ZM51.1926 14.3882H43.727C41.9222 14.3882 40.4454 15.8649 40.4454 17.6698V30.2218C40.4454 32.0267 41.9222 33.5034 43.727 33.5034H51.1926C52.9975 33.5034 54.4742 32.0267 54.4742 30.2218V17.6698C54.4742 15.8649 52.9975 14.3882 51.1926 14.3882Z" fill="#B4B4B4"/>
<path id="Vector_20" d="M69.3233 33.7496H61.8578C60.0529 33.7496 58.5762 32.2729 58.5762 30.468V17.916C58.5762 16.1111 60.0529 14.6344 61.8578 14.6344H69.3233C71.1282 14.6344 72.6049 16.1111 72.6049 17.916V30.468C72.6049 32.2729 71.1282 33.7496 69.3233 33.7496Z" fill="#BFBEDD"/>
<path id="Vector_21" opacity="0.2" d="M69.3233 16.2752C70.2258 16.2752 70.9641 17.0135 70.9641 17.916V30.468C70.9641 31.3705 70.2258 32.1088 69.3233 32.1088H61.8578C60.9553 32.1088 60.217 31.3705 60.217 30.468V17.916C60.217 17.0135 60.9553 16.2752 61.8578 16.2752H69.3233ZM69.3233 14.6344H61.8578C60.0529 14.6344 58.5762 16.1111 58.5762 17.916V30.468C58.5762 32.2729 60.0529 33.7496 61.8578 33.7496H69.3233C71.1282 33.7496 72.6049 32.2729 72.6049 30.468V17.916C72.6049 16.0291 71.1282 14.6344 69.3233 14.6344Z" fill="#B4B4B4"/>
<path id="Vector_22" d="M87.4541 33.6674H79.9885C78.1836 33.6674 76.7069 32.1907 76.7069 30.3859V17.8338C76.7069 16.029 78.1836 14.5522 79.9885 14.5522H87.4541C89.2589 14.5522 90.7357 16.029 90.7357 17.8338V30.3859C90.7357 32.1907 89.2589 33.6674 87.4541 33.6674Z" fill="#BFBEDD"/>
<path id="Vector_23" opacity="0.2" d="M87.4541 16.193C88.3565 16.193 89.0949 16.9314 89.0949 17.8338V30.3859C89.0949 31.2883 88.3565 32.0267 87.4541 32.0267H79.9885C79.0861 32.0267 78.3477 31.2883 78.3477 30.3859V17.8338C78.3477 16.9314 79.0861 16.193 79.9885 16.193H87.4541ZM87.4541 14.5522H79.9885C78.1836 14.5522 76.7069 16.029 76.7069 17.8338V30.3859C76.7069 32.1907 78.1836 33.6674 79.9885 33.6674H87.4541C89.2589 33.6674 90.7357 32.1907 90.7357 30.3859V17.8338C90.7357 16.029 89.2589 14.5522 87.4541 14.5522Z" fill="#B4B4B4"/>
<path id="Vector_24" d="M96.7245 4.95362V6.59441H1.80488V4.95362C1.80488 2.24632 4.01994 0.03125 6.72725 0.03125H91.8022C94.5095 0.03125 96.7245 2.24632 96.7245 4.95362Z" fill="url(#paint2_linear_110_221)"/>
<path id="Vector_25" d="M17.2283 17.916V34.488C17.2283 36.2928 15.7516 37.7695 13.9467 37.7695H1.80488V14.6344H13.9467C15.7516 14.6344 17.2283 16.1111 17.2283 17.916Z" fill="#BFBEDD"/>
<path id="Vector_26" opacity="0.2" d="M13.9467 14.6344H1.80488V16.8495H13.9467V16.7674C14.521 16.7674 15.0132 17.2597 15.0132 17.8339V34.488C15.0132 35.0622 14.521 35.5545 13.9467 35.5545H1.80488V37.7695H13.9467C15.7516 37.7695 17.2283 36.2928 17.2283 34.488V17.916C17.2283 16.0291 15.7516 14.6344 13.9467 14.6344Z" fill="#616161"/>
<path id="Vector_27" opacity="0.2" d="M91.8022 2.49243C93.1969 2.49243 94.2634 3.55895 94.2634 4.95362V53.3569C94.2634 54.7516 93.1969 55.8181 91.8022 55.8181H6.72725C5.41461 55.8181 4.26606 54.7516 4.26606 53.3569V4.95362C4.26606 3.55895 5.41461 2.49243 6.72725 2.49243H91.8022ZM91.8022 0.03125H6.72725C4.01994 0.03125 1.80488 2.24632 1.80488 4.95362V53.3569C1.80488 56.0642 4.01994 58.2793 6.72725 58.2793H91.8022C94.5095 58.2793 96.7245 56.0642 96.7245 53.3569V4.95362C96.7245 2.24632 94.5095 0.03125 91.8022 0.03125Z" fill="#B4B4B4"/>
</g>
<defs>
<linearGradient id="paint0_linear_110_221" x1="49.2647" y1="0.03125" x2="49.2647" y2="58.2793" gradientUnits="userSpaceOnUse">
<stop stop-color="#FFE4F6"/>
<stop offset="0.6132" stop-color="#F4C3E3"/>
<stop offset="1" stop-color="#FFE4F6"/>
</linearGradient>
<linearGradient id="paint1_linear_110_221" x1="1.72284" y1="45.0299" x2="96.7246" y2="45.0299" gradientUnits="userSpaceOnUse">
<stop offset="0.0038323" stop-color="#282662"/>
<stop offset="0.8197" stop-color="#BFBEDD"/>
<stop offset="1" stop-color="#282662"/>
</linearGradient>
<linearGradient id="paint2_linear_110_221" x1="49.2647" y1="6.59441" x2="49.2647" y2="0.03125" gradientUnits="userSpaceOnUse">
<stop offset="0.0038323" stop-color="#BFBEDD"/>
<stop offset="0.8197" stop-color="#282662"/>
<stop offset="1" stop-color="#212049"/>
</linearGradient>
</defs>
</svg>
