<svg width="57" height="58" viewBox="0 0 57 58" fill="none" xmlns="http://www.w3.org/2000/svg">
<path d="M39.6758 20.395C39.4321 19.7637 39.0588 19.1905 38.58 18.7122C38.1013 18.2339 37.5276 17.8613 36.8961 17.6182C36.0265 17.2961 35.108 17.1259 34.1807 17.1149C32.6387 17.0447 32.1764 17.0271 28.2701 17.0271C24.3638 17.0271 23.9015 17.0447 22.3595 17.1149C21.4312 17.1255 20.5117 17.2958 19.6412 17.6182C19.0099 17.8619 18.4366 18.2352 17.9584 18.714C17.4801 19.1927 17.1074 19.7664 16.8643 20.3979C16.5423 21.2675 16.372 22.186 16.3611 23.1133C16.2908 24.6553 16.2733 25.1176 16.2733 29.0239C16.2733 32.9302 16.2908 33.3925 16.3611 34.9345C16.3717 35.8628 16.5419 36.7823 16.8643 37.6528C17.1081 38.2841 17.4814 38.8574 17.9601 39.3356C18.4389 39.8139 19.0125 40.1866 19.6441 40.4297C20.5137 40.7517 21.4322 40.922 22.3595 40.9329C23.9015 41.0032 24.3638 41.0178 28.2701 41.0178C32.1764 41.0178 32.6387 41.0032 34.1807 40.93C35.1088 40.9203 36.0283 40.7511 36.899 40.4297C37.5303 40.1859 38.1035 39.8126 38.5818 39.3339C39.0601 38.8551 39.4327 38.2815 39.6758 37.6499C39.9979 36.7803 40.1681 35.8618 40.1791 34.9345C40.2493 33.3925 40.264 32.9302 40.264 29.0239C40.264 25.1176 40.2493 24.6553 40.1762 23.1133C40.1665 22.1852 39.9972 21.2657 39.6758 20.395ZM28.2701 36.538C26.7839 36.538 25.3312 36.0973 24.0955 35.2717C22.8598 34.446 21.8967 33.2725 21.328 31.8994C20.7592 30.5264 20.6104 29.0156 20.9004 27.558C21.1903 26.1004 21.9059 24.7615 22.9568 23.7106C24.0077 22.6598 25.3466 21.9441 26.8042 21.6542C28.2617 21.3643 29.7726 21.5131 31.1456 22.0818C32.5186 22.6505 33.6922 23.6136 34.5178 24.8493C35.3435 26.085 35.7842 27.5378 35.7842 29.0239C35.7842 31.0168 34.9925 32.928 33.5834 34.3372C32.1742 35.7463 30.2629 36.538 28.2701 36.538ZM36.0797 22.9699C35.7325 22.9699 35.393 22.867 35.1043 22.674C34.8156 22.4811 34.5906 22.2069 34.4577 21.8861C34.3248 21.5653 34.2901 21.2123 34.3578 20.8718C34.4256 20.5312 34.5928 20.2184 34.8383 19.9729C35.0838 19.7273 35.3966 19.5601 35.7372 19.4924C36.0778 19.4246 36.4308 19.4594 36.7516 19.5923C37.0724 19.7252 37.3465 19.9502 37.5395 20.2389C37.7324 20.5276 37.8353 20.8671 37.8353 21.2143C37.8353 21.6799 37.6504 22.1265 37.3211 22.4557C36.9919 22.7849 36.5453 22.9699 36.0797 22.9699ZM33.1478 29.0239C33.1478 29.9886 32.8617 30.9317 32.3258 31.7338C31.7898 32.536 31.028 33.1612 30.1367 33.5303C29.2454 33.8995 28.2647 33.9961 27.3185 33.8079C26.3723 33.6197 25.5032 33.1551 24.821 32.473C24.1388 31.7908 23.6743 30.9217 23.4861 29.9755C23.2979 29.0293 23.3945 28.0486 23.7637 27.1573C24.1328 26.266 24.758 25.5042 25.5602 24.9682C26.3623 24.4323 27.3054 24.1462 28.2701 24.1462C29.5637 24.1462 30.8044 24.6601 31.7192 25.5748C32.6339 26.4896 33.1478 27.7303 33.1478 29.0239ZM28.2701 0.933838C22.7144 0.933838 17.2835 2.58129 12.6641 5.66787C8.04468 8.75445 4.44431 13.1415 2.31823 18.2743C0.192164 23.4071 -0.364113 29.0551 0.719748 34.504C1.80361 39.953 4.47893 44.9581 8.4074 48.8866C12.3359 52.8151 17.341 55.4904 22.79 56.5742C28.2389 57.6581 33.8869 57.1018 39.0197 54.9758C44.1525 52.8497 48.5395 49.2493 51.6261 44.6299C54.7127 40.0105 56.3602 34.5796 56.3602 29.0239C56.3602 21.574 53.4007 14.4291 48.1328 9.16123C42.8649 3.89332 35.72 0.933838 28.2701 0.933838ZM42.8125 35.0545C42.7878 36.2686 42.5572 37.4697 42.1308 38.6067C41.755 39.5784 41.1804 40.4609 40.4437 41.1975C39.707 41.9342 38.8246 42.5088 37.8529 42.8846C36.7168 43.3108 35.5167 43.5413 34.3036 43.5664C32.7411 43.6366 32.2437 43.6542 28.2701 43.6542C24.2965 43.6542 23.7991 43.6366 22.2366 43.5664C21.0234 43.5413 19.8234 43.3108 18.6873 42.8846C17.7156 42.5088 16.8331 41.9342 16.0965 41.1975C15.3598 40.4609 14.7852 39.5784 14.4094 38.6067C13.9832 37.4706 13.7527 36.2705 13.7276 35.0574C13.6574 33.4949 13.6398 32.9975 13.6398 29.0239C13.6398 25.0503 13.6574 24.5529 13.7276 22.9904C13.7518 21.7774 13.9813 20.5774 14.4065 19.4411C14.7822 18.4686 15.3571 17.5854 16.0944 16.8482C16.8316 16.111 17.7148 15.536 18.6873 15.1603C19.8235 14.7351 21.0236 14.5056 22.2366 14.4814C23.7991 14.4112 24.2965 14.3937 28.2701 14.3937C32.2437 14.3937 32.7411 14.4112 34.3036 14.4814C35.5165 14.5056 36.7166 14.7351 37.8529 15.1603C38.8249 15.5364 39.7075 16.1115 40.4442 16.8487C41.1809 17.5859 41.7553 18.4689 42.1308 19.4411C42.5569 20.5772 42.7874 21.7773 42.8125 22.9904C42.8828 24.5529 42.9003 25.0503 42.9003 29.0239C42.9003 32.9975 42.8828 33.492 42.8125 35.0545Z" fill="#FFE4F6"/>
</svg>
