<svg width="183" height="182" viewBox="0 0 183 182" fill="none" xmlns="http://www.w3.org/2000/svg">
<g id="TEMPS">
<g id="Carr&#195;&#169;">
<rect id="Rectangle 13" x="0.666687" y="91.0001" width="128.693" height="128.693" rx="20" transform="rotate(-45 0.666687 91.0001)" fill="url(#paint0_linear_46_197)"/>
<g id="Mask group">
<mask id="mask0_46_197" style="mask-type:alpha" maskUnits="userSpaceOnUse" x="8" y="8" width="167" height="166">
<rect id="Rectangle 14" x="0.666687" y="91" width="128.693" height="128.693" rx="20" transform="rotate(-45 0.666687 91)" fill="url(#paint1_linear_46_197)"/>
</mask>
<g mask="url(#mask0_46_197)">
<circle id="Ellipse 3" cx="43.5788" cy="110.786" r="56.3748" fill="#FCFCFC" fill-opacity="0.2"/>
<ellipse id="Ellipse 4" cx="87.0573" cy="20.976" rx="56.3748" ry="78.532" transform="rotate(-79.4693 87.0573 20.976)" fill="#FCFCFC" fill-opacity="0.2"/>
<ellipse id="Ellipse 5" cx="31.2604" cy="98.3502" rx="56.3748" ry="106.299" transform="rotate(10.2239 31.2604 98.3502)" fill="#FCFCFC" fill-opacity="0.2"/>
</g>
</g>
</g>
<path id="Vector 8" d="M101.9 171.767L66.8153 116.948L118.345 71.6305L170.606 103.06L101.9 171.767Z" fill="#FCFCFC" fill-opacity="0.8"/>
<g id="&#240;&#159;&#166;&#134; icon &#34;alarm clock&#34;">
<g id="Group">
<path id="Vector" d="M91.6666 127.857C109.613 127.857 124.162 112.994 124.162 94.6583C124.162 76.3229 109.613 61.4592 91.6666 61.4592C73.7197 61.4592 59.1709 76.3229 59.1709 94.6583C59.1709 112.994 73.7197 127.857 91.6666 127.857Z" fill="url(#paint2_linear_46_197)" stroke="#282662" stroke-width="8.51896" stroke-linejoin="round"/>
<path id="Vector_2" d="M90.408 75.379L90.4059 95.3144L104.182 109.389" stroke="#FCFCFC" stroke-width="5.52" stroke-linecap="round" stroke-linejoin="round"/>
<path id="Vector_3" d="M56.2169 63.8736L68.6243 54.8193" stroke="#282662" stroke-width="8.51896" stroke-linecap="round" stroke-linejoin="round"/>
<path id="Vector_4" d="M127.116 63.8736L114.709 54.8193" stroke="#282662" stroke-width="8.51896" stroke-linecap="round" stroke-linejoin="round"/>
</g>
</g>
</g>
<defs>
<linearGradient id="paint0_linear_46_197" x1="-39.3885" y1="163.099" x2="307.153" y2="155.605" gradientUnits="userSpaceOnUse">
<stop stop-color="#FFE4F6"/>
<stop offset="1" stop-color="#282662"/>
</linearGradient>
<linearGradient id="paint1_linear_46_197" x1="64.8151" y1="266.426" x2="59.4603" y2="45.6923" gradientUnits="userSpaceOnUse">
<stop stop-color="#FFE4F6"/>
<stop offset="1" stop-color="#282662"/>
</linearGradient>
<linearGradient id="paint2_linear_46_197" x1="112.378" y1="68.4077" x2="69.1637" y2="126.621" gradientUnits="userSpaceOnUse">
<stop stop-color="#282662"/>
<stop offset="1" stop-color="#FFE4F6"/>
</linearGradient>
</defs>
</svg>
